<svg version="1.2" xmlns="http://www.w3.org/2000/svg" viewBox="0 0 348 375" width="348" height="375">
	<title>ChatGPT Image 9 de ago</title>
	<style>
		.s0 { fill: #0d6efd } 
	</style>
	<path id="Preencher com Cor Sólida 3" class="s0" d="m23.1 14.2c0.9 1.3 23.9 40.7 51.2 87.6l49.7 85.2c-86 134.9-111 174.2-111 174.5 0 0.3 21 0.5 46.7 0.5h46.8c54.3-101.4 62.2-117.1 65.1-125.7 2.2-6.2 4.2-11 4.6-10.8 0.5 0.3 0.8 1.4 0.8 2.5 0 1.1 1.2 5.7 2.6 10.3 1.8 5.5 12.7 27.1 33.3 66l30.6 57.7h93.5c-3.6-5.8-27.8-45.3-56-91.5-28.3-46.2-51.3-84.4-51.4-85 0-0.6 13.9-23.9 30.9-52 17-28 40.4-66.9 52.2-86.2l21.3-35.3-88.2 0.5c-51.7 96.6-57.1 107.6-61.3 119.4-2.8 7.7-5.2 14.1-5.5 14.1-0.3 0-2.4-5.5-4.7-12.3-2.6-7.6-14-32.8-30.1-66.7l-26-54.5-96.6-0.5z"/>
</svg>